<svg width="32" height="32" viewBox="0 0 32 32" fill="none" xmlns="http://www.w3.org/2000/svg">
  <defs>
    <linearGradient id="iconGradient" x1="0%" y1="0%" x2="100%" y2="100%">
      <stop offset="0%" style="stop-color:#0ea5e9" />
      <stop offset="50%" style="stop-color:#0284c7" />
      <stop offset="100%" style="stop-color:#0891b2" />
    </linearGradient>
  </defs>
  
  <!-- Background circle -->
  <circle cx="16" cy="16" r="15" fill="url(#iconGradient)" opacity="0.1" stroke="url(#iconGradient)" stroke-width="1"/>
  
  <!-- Currency exchange symbol -->
  <g transform="translate(6, 8)">
    <!-- Currency symbol 1 -->
    <circle cx="4" cy="4" r="3" fill="none" stroke="url(#iconGradient)" stroke-width="1.5"/>
    <text x="4" y="6" text-anchor="middle" fill="url(#iconGradient)" font-size="4" font-weight="bold">$</text>
    
    <!-- Currency symbol 2 -->
    <circle cx="16" cy="12" r="3" fill="none" stroke="url(#iconGradient)" stroke-width="1.5"/>
    <text x="16" y="14" text-anchor="middle" fill="url(#iconGradient)" font-size="4" font-weight="bold">€</text>
    
    <!-- Exchange arrows -->
    <path d="M7 5 L13 5 M12 4 L13 5 L12 6" stroke="url(#iconGradient)" stroke-width="1" fill="none" stroke-linecap="round"/>
    <path d="M13 11 L7 11 M8 10 L7 11 L8 12" stroke="url(#iconGradient)" stroke-width="1" fill="none" stroke-linecap="round"/>
  </g>
  
  <!-- Hand gesture icon -->
  <g transform="translate(20, 18)">
    <path d="M1 4 C1 3 1.5 2.5 2 2.5 C2.5 2.5 3 3 3 4 L3 6 C3 6 4 5 5 5 C6 5 6.5 5.5 6.5 6.5 L6.5 9 C6.5 10 5.5 11 4.5 11 L2.5 11 C1.5 11 1 10 1 9 L1 4 Z" 
          fill="url(#iconGradient)" 
          stroke="url(#iconGradient)" 
          stroke-width="0.3"/>
  </g>
</svg>